#!OML:ASF F:\VICON\USERDATA\INSTALL\rory3\rory3.ASF
:FULLY-SPECIFIED
:DEGREES
2119
root -3.18494 17.4821 3.4831 5.73883 0.674057 6.89809
lowerback 10.0578 2.35943 5.19465
upperback 1.35701 3.90369 4.64161
thorax -4.20321 1.87677 1.40114
lowerneck -35.0689 -6.324 -10.0288
upperneck 16.6914 -4.64819 3.6013
head 11.3305 -2.27784 2.04353
rclavicle 2.66371e-014 -2.22639e-014
rhumerus 21.0283 42.6672 -24.9501
rradius 60.5555
rwrist 54.9149
rhand -67.2022 6.41484
rfingers 7.12502
rthumb -38.9775 -19.1116
lclavicle 2.66371e-014 -2.22639e-014
lhumerus -40.571 4.64087 76.4213
lradius 53.7663
lwrist -2.38711
lhand -21.3632 21.0354
lfingers 7.12502
lthumb 5.02363 50.9558
rfemur -17.5326 5.11705 1.12199
rtibia 35.8487
rfoot -20.2048 -8.12316
rtoes -10.639
lfemur -4.87188 -4.08214 -8.82826
ltibia 13.8275
lfoot -0.726403 8.4883
ltoes -35.501
2120
root -3.10147 17.4601 3.4957 5.56382 0.344629 6.76186
lowerback 10.087 2.44757 5.09947
upperback 1.41319 4.00621 4.60121
thorax -4.16296 1.92967 1.39816
lowerneck -34.9372 -6.25257 -10.1289
upperneck 16.4338 -4.5577 3.76995
head 11.2117 -2.21729 2.14212
rclavicle -1.19271e-014 6.36111e-015
rhumerus 21.4662 42.2825 -23.8706
rradius 60.1717
rwrist 54.9591
rhand -67.336 5.34344
rfingers 7.12502
rthumb -39.1036 -20.1468
lclavicle -1.19271e-014 6.36111e-015
lhumerus -40.6487 4.48476 76.3949
lradius 53.7737
lwrist -2.67576
lhand -20.4314 22.4499
lfingers 7.12502
lthumb 5.92329 52.3471
rfemur -17.5078 5.48416 0.923751
rtibia 35.9682
rfoot -20.3101 -8.05369
rtoes -10.7757
lfemur -4.30537 -3.82994 -9.01284
ltibia 13.5671
lfoot -1.6797 8.73808
ltoes -35.3054
2121
root -3.01793 17.4372 3.50306 5.45156 0.160933 6.73344
lowerback 10.0552 2.47413 4.89368
upperback 1.46602 4.01139 4.56743
thorax -4.10129 1.93698 1.47881
lowerneck -34.8739 -6.17288 -10.1839
upperneck 16.1246 -4.43183 3.79747
head 11.0761 -2.1559 2.18543
rclavicle 6.36111e-015 3.18055e-014
rhumerus 22.1895 41.8423 -22.5348
rradius 59.9009
rwrist 54.9205
rhand -67.2937 1.39574
rfingers 7.12502
rthumb -39.0638 -24.106
lclavicle 6.36111e-015 3.18055e-014
lhumerus -40.7756 4.40601 76.3818
lradius 53.867
lwrist -3.06425
lhand -19.6147 24.5254
lfingers 7.12502
lthumb 6.71175 54.399
rfemur -17.4642 5.71588 0.631579
rtibia 36.0374
rfoot -20.4224 -8.09901
rtoes -10.8096
lfemur -3.99855 -3.37021 -9.33433
ltibia 13.5276
lfoot -2.50382 8.64209
ltoes -35.3436
2122
root -2.93491 17.4175 3.5064 5.35304 0.104934 6.67925
lowerback 9.83867 2.45254 4.71095
upperback 1.67058 3.93104 4.55031
thorax -3.778 1.9075 1.58684
lowerneck -35.0908 -6.06132 -10.1544
upperneck 15.7995 -4.26512 3.81408
head 10.9719 -2.06823 2.21692
rclavicle -3.93594e-014 0
rhumerus 23.3222 41.1327 -20.8842
rradius 59.6628
rwrist 54.8308
rhand -67.4357 -1.65848
rfingers 7.12502
rthumb -39.1977 -27.1216
lclavicle -3.93594e-014 0
lhumerus -40.5316 4.44455 76.4034
lradius 53.6808
lwrist -3.23218
lhand -19.2456 25.326
lfingers 7.12502
lthumb 7.0681 55.188
rfemur -17.3743 5.89356 0.405551
rtibia 36.0738
rfoot -20.4421 -8.27426
rtoes -11.3783
lfemur -3.92881 -2.76531 -9.65088
ltibia 13.7692
lfoot -3.33499 8.3483
ltoes -35.0809
2123
root -2.85401 17.4009 3.50428 5.18867 0.170683 6.60495
lowerback 9.85439 2.40892 4.57865
upperback 1.76592 3.85292 4.5129
thorax -3.69332 1.87261 1.63248
lowerneck -35.1767 -5.93169 -10.0511
upperneck 15.5194 -4.12154 3.80684
head 10.8649 -1.99163 2.2246
rclavicle 1.98785e-014 4.13472e-014
rhumerus 24.2355 40.407 -19.4293
rradius 59.5377
rwrist 54.8631
rhand -67.6895 -3.9315
rfingers 7.12502
rthumb -39.4368 -29.325
lclavicle 1.98785e-014 4.13472e-014
lhumerus -40.2758 4.3896 76.4262
lradius 53.2274
lwrist -3.13867
lhand -20.3793 22.0797
lfingers 7.12502
lthumb 5.97364 51.9755
rfemur -17.1853 6.0835 0.24378
rtibia 36.088
rfoot -20.4007 -8.63708
rtoes -12.5618
lfemur -4.00696 -2.21241 -9.93894
ltibia 14.2662
lfoot -4.19058 8.26795
ltoes -34.2792
2124
root -2.77181 17.3855 3.50526 5.0964 0.365272 6.48493
lowerback 9.89613 2.36143 4.54758
upperback 1.71179 3.79324 4.48822
thorax -3.77354 1.84188 1.62852
lowerneck -34.971 -5.84189 -10.0802
upperneck 15.1267 -4.01063 3.83075
head 10.678 -1.93502 2.25958
rclavicle 8.34896e-015 0
rhumerus 24.9889 39.8034 -17.9712
rradius 59.5743
rwrist 54.6954
rhand -67.8458 -4.85182
rfingers 7.12502
rthumb -39.5839 -30.202
lclavicle 8.34896e-015 0
lhumerus -40.1778 4.28293 76.425
lradius 52.8234
lwrist -3.61431
lhand -21.0217 19.9661
lfingers 7.12502
lthumb 5.35341 49.8785
rfemur -16.9544 6.17107 0.121015
rtibia 36.0583
rfoot -20.5048 -8.82887
rtoes -12.7348
lfemur -4.27393 -1.75983 -10.1712
ltibia 14.9479
lfoot -5.04542 8.2621
ltoes -33.6273
2125
root -2.6867 17.3703 3.51706 5.0366 0.411816 6.47459
lowerback 9.82771 2.36293 4.42428
upperback 1.67302 3.77599 4.38886
thorax -3.77709 1.83434 1.59764
lowerneck -34.856 -5.71623 -9.91987
upperneck 14.7399 -3.89867 3.72326
head 10.5007 -1.88296 2.21528
rclavicle -1.82882e-014 -3.49861e-014
rhumerus 25.7081 39.0562 -16.5503
rradius 59.851
rwrist 54.4847
rhand -67.6723 -6.08324
rfingers 7.12502
rthumb -39.4205 -31.4815
lclavicle -1.82882e-014 -3.49861e-014
lhumerus -40.1301 4.12313 76.3822
lradius 52.4998
lwrist -4.08858
lhand -20.295 21.0504
lfingers 7.12502
lthumb 6.055 50.9438
rfemur -16.7284 6.22097 -0.17399
rtibia 35.9794
rfoot -20.5296 -8.86943
rtoes -12.8176
lfemur -4.52454 -1.37202 -10.5776
ltibia 15.6966
lfoot -5.95452 8.44757
ltoes -33.0078
2126
root -2.60446 17.3549 3.52384 4.99197 0.319522 6.47418
lowerback 9.86309 2.41302 4.25373
upperback 1.5814 3.82809 4.26364
thorax -3.89482 1.85929 1.55169
lowerneck -34.4036 -5.57698 -9.74245
upperneck 14.0297 -3.82453 3.66744
head 10.1576 -1.83772 2.18236
rclavicle -2.38542e-014 -1.27222e-014
rhumerus 26.5246 38.195 -15.1171
rradius 60.1045
rwrist 54.4366
rhand -67.4006 -6.79927
rfingers 7.12502
rthumb -39.1646 -32.272
lclavicle -2.38542e-014 -1.27222e-014
lhumerus -40.0422 3.96432 76.349
lradius 51.9722
lwrist -4.12109
lhand -20.2116 20.5819
lfingers 7.12502
lthumb 6.13549 50.4731
rfemur -16.6164 6.4193 -0.484826
rtibia 35.8432
rfoot -20.4394 -8.99356
rtoes -12.9926
lfemur -4.8311 -0.824807 -11.0134
ltibia 16.4932
lfoot -6.69386 8.6455
ltoes -32.452
2127
root -2.52419 17.3417 3.52315 4.86966 0.277413 6.45413
lowerback 9.94431 2.42386 4.03565
upperback 1.54779 3.82557 4.21126
thorax -3.98574 1.85937 1.61433
lowerneck -33.8958 -5.43393 -9.73708
upperneck 13.26 -3.71023 3.78553
head 9.79301 -1.7608 2.24767
rclavicle 6.36111e-015 3.81667e-014
rhumerus 27.7412 37.2333 -13.366
rradius 60.3157
rwrist 54.3972
rhand -67.3068 -6.7765
rfingers 7.12502
rthumb -39.0761 -32.2747
lclavicle 6.36111e-015 3.81667e-014
lhumerus -39.8811 4.0285 76.3567
lradius 51.3485
lwrist -4.13708
lhand -20.3924 20.1057
lfingers 7.12502
lthumb 5.96099 50.0018
rfemur -16.424 6.71623 -0.734104
rtibia 35.6464
rfoot -20.352 -9.34573
rtoes -13.5563
lfemur -5.11354 -0.551785 -11.4022
ltibia 17.323
lfoot -7.45725 9.04598
ltoes -31.6429
